<?xml version="1.0" encoding="UTF-8" standalone="no"?>
<!--
	Fehér huszár
	Eredeti: http://en.wikipedia.org/wiki/File:Chess_nlt45.svg
	Felhasználási feltételek: Nevezd meg! - Így add tovább! (Creative Commons)
	Uray M. János
	2013
-->

<svg
   xmlns:dc="http://purl.org/dc/elements/1.1/"
   xmlns:cc="http://creativecommons.org/ns#"
   xmlns:rdf="http://www.w3.org/1999/02/22-rdf-syntax-ns#"
   xmlns:svg="http://www.w3.org/2000/svg"
   xmlns="http://www.w3.org/2000/svg"
   xmlns:sodipodi="http://sodipodi.sourceforge.net/DTD/sodipodi-0.dtd"
   xmlns:inkscape="http://www.inkscape.org/namespaces/inkscape"
   version="1.1"
   width="128"
   height="128"
   viewBox="0 0 45 45"
   id="svg2"
   inkscape:version="0.48.4 r9939"
   sodipodi:docname="white-unicorn.svg"
   inkscape:export-filename="/home/gerymate/Code/SpaceChess/helpers/my_pieces/white-unicorn.png"
   inkscape:export-xdpi="90"
   inkscape:export-ydpi="90">
  <metadata
     id="metadata20">
    <rdf:RDF>
      <cc:Work
         rdf:about="">
        <dc:format>image/svg+xml</dc:format>
        <dc:type
           rdf:resource="http://purl.org/dc/dcmitype/StillImage" />
        <dc:title></dc:title>
      </cc:Work>
    </rdf:RDF>
  </metadata>
  <defs
     id="defs18" />
  <sodipodi:namedview
     pagecolor="#ffffff"
     bordercolor="#666666"
     borderopacity="1"
     objecttolerance="10"
     gridtolerance="10"
     guidetolerance="10"
     inkscape:pageopacity="0"
     inkscape:pageshadow="2"
     inkscape:window-width="1301"
     inkscape:window-height="744"
     id="namedview16"
     showgrid="false"
     showguides="true"
     inkscape:guide-bbox="true"
     inkscape:snap-bbox="true"
     inkscape:bbox-paths="true"
     inkscape:zoom="5.2149125"
     inkscape:cx="55.824326"
     inkscape:cy="58.29089"
     inkscape:window-x="65"
     inkscape:window-y="24"
     inkscape:window-maximized="1"
     inkscape:current-layer="svg2">
    <sodipodi:guide
       orientation="1,0"
       position="14.765348,58.294362"
       id="guide2997" />
    <sodipodi:guide
       orientation="1,0"
       position="110.06896,64.047096"
       id="guide2999" />
    <sodipodi:guide
       orientation="0,1"
       position="48.514716,110.26072"
       id="guide3001" />
    <sodipodi:guide
       orientation="0,1"
       position="57.719089,14.957106"
       id="guide3003" />
    <sodipodi:guide
       orientation="1,0"
       position="50.048778,62.896549"
       id="guide3005" />
  </sodipodi:namedview>
  <!-- alap -->
  <g
     id="g4"
     transform="matrix(1,0,0,0.75,0.01763873,9.8421234)"
     style="fill:#ffffff;stroke:#000000;stroke-width:1.5;stroke-linecap:round;stroke-linejoin:round">
    <!-- test -->
    <path
       d="m 22,10 c 10.5,1 16.5,8 16,29 l -23,0 c 0,-9 10,-6.5 8,-21"
       id="path6"
       inkscape:connector-curvature="0" />
    <!-- fej -->
    <path
       d="m 24,18 c 0.38,2.91 -5.55,7.37 -8,9 -3,2 -2.82,4.34 -5,4 -1.042,-0.94 1.41,-3.04 0,-3 -1,0 0.19,1.23 -1,2 -1,0 -4.003,1 -4,-4 0,-2 6,-12 6,-12 0,0 1.89,-1.9 2,-3.5 -0.73,-0.994 -0.5,-2 -0.5,-3 1,-1 3,2.5 3,2.5 0.840088,-17.9202232 1.519366,-19.2234074 2,0 0,0 0.78,-1.992 2.5,-3 1,0 1,3 1,3"
       id="path8"
       inkscape:connector-curvature="0"
       sodipodi:nodetypes="ccccccccccccc" />
  </g>
  <!-- vonalak -->
  <g
     id="g10"
     transform="matrix(1,0,0,0.75,0.01763873,9.8421234)"
     style="fill:#000000;stroke:#000000;stroke-width:1.5;stroke-linejoin:round">
    <!-- orr -->
    <path
       d="m 9.5,25.5 a 0.5,0.5 0 1 1 -1,0 0.5,0.5 0 1 1 1,0 z"
       id="path12"
       inkscape:connector-curvature="0" />
    <!-- szem -->
    <path
       d="m 15.25,14.2 a 0.50027792,1.5008337 30 1 1 -1.5,2.6 0.50027792,1.5008337 30 1 1 1.5,-2.6 z"
       id="path14"
       inkscape:connector-curvature="0" />
  </g>
</svg>
